<svg id="a544e2fb-9ad8-46ff-b1ff-6eb7ab9f9d2b" data-name="f30aa36f-2b3a-4887-85bf-286259dfd870" xmlns="http://www.w3.org/2000/svg" viewBox="0 0 290.6 512"><title>facebook</title><path d="M296.2,512h-82a24.86,24.86,0,0,1-24.84-24.84V302.23H141.54a24.88,24.88,0,0,1-24.84-24.84V198.14a24.86,24.86,0,0,1,24.84-24.83h47.83V133.63c0-39.35,12.36-72.83,35.73-96.81S281.38,0,320,0l62.53.1A24.88,24.88,0,0,1,407.3,24.94V98.52a24.86,24.86,0,0,1-24.83,24.83h-42.1c-12.84,0-16.11,2.57-16.81,3.36-1.15,1.31-2.52,5-2.52,15.22V173.3h58.27a25.24,25.24,0,0,1,12.29,3.13,24.9,24.9,0,0,1,12.78,21.72v79.24a24.86,24.86,0,0,1-24.83,24.83H321V487.16A24.86,24.86,0,0,1,296.2,512Zm-76.81-30H291V288.79a16.6,16.6,0,0,1,16.58-16.58h66.73V203.32H307.6A16.6,16.6,0,0,1,291,186.74V142c0-11.72,1.19-25.06,10-35.08,10.7-12.12,27.55-13.52,39.3-13.52h36.93V30.11L320,30c-62,0-100.56,39.7-100.56,103.61v53.11a16.6,16.6,0,0,1-16.58,16.58H146.72v68.89h56.09a16.6,16.6,0,0,1,16.58,16.58Z" transform="translate(-116.7)"/></svg>