<svg id="bc2d9ebb-580b-4e55-91f5-1f11ac0e693b" data-name="Layer 1" xmlns="http://www.w3.org/2000/svg" viewBox="0 0 512 512"><title>instagram</title><path d="M373.41,0H138.59C62.17,0,0,62.17,0,138.59V373.41C0,449.83,62.17,512,138.59,512H373.41C449.83,512,512,449.83,512,373.41V138.59C512,62.17,449.83,0,373.41,0ZM482,373.41A108.69,108.69,0,0,1,373.41,482H138.59A108.69,108.69,0,0,1,30,373.41V138.59A108.69,108.69,0,0,1,138.59,30H373.41A108.69,108.69,0,0,1,482,138.59Z"/><path d="M256,116c-77.2,0-140,62.8-140,140s62.8,140,140,140,140-62.8,140-140S333.2,116,256,116Zm0,250A110,110,0,1,1,366,256,110.11,110.11,0,0,1,256,366Z"/><path d="M399.34,66.29a41.37,41.37,0,1,0,41.37,41.36A41.4,41.4,0,0,0,399.34,66.29Zm0,52.71a11.35,11.35,0,1,1,11.36-11.35A11.37,11.37,0,0,1,399.34,119Z"/></svg>