<svg id="fdc5ce19-c255-4b10-a05a-640726ccc2e6" data-name="Layer 1" xmlns="http://www.w3.org/2000/svg" viewBox="0 0 579.33 130.76"><title>logo</title><g id="bb75d946-ca4d-4a53-86f7-348292b0b91b" data-name="svgGroup"><path d="M79.47,118.2V101.5c-.6-.09-1.2-.19-1.79-.31a6.37,6.37,0,0,1-3.37-1.44A1.17,1.17,0,0,1,74,99a3.78,3.78,0,0,1,1.35-2.45c.16-.17.33-.33.5-.48,1.26-1.12,2.49-2.26,3.72-3.42a46.82,46.82,0,0,0-.39-5.8,67,67,0,0,0-1.37-7.33c-.28-1.15-.55-2.29-.82-3.44q-.78-3.33-1.3-5.79c-.15-.68-.29-1.37-.42-2-.25-1.26-.44-2.53-.58-3.81a31.81,31.81,0,0,1-.2-3.52q0-3.16.93-4.11l.09-.09a3.38,3.38,0,0,1,1.15-.62,4.8,4.8,0,0,1,1.08-.22,6.27,6.27,0,0,1,.75,0,7,7,0,0,1,.79,0,3.2,3.2,0,0,1,1.7.47l0,0a2.62,2.62,0,0,1,.78,1.32,9.61,9.61,0,0,1,.25,1.66,5.24,5.24,0,0,0,.32,1.61l0,0A2.5,2.5,0,0,0,85,62.81l.48,0A94,94,0,0,0,98.51,61.7q6.54-1,13-2.1,12.89-2.15,18.11-2.14c3.15,0,5.7.07,7.65.23l.61.06c0,.49.06,1,.11,1.48s.12.92.2,1.34c0,.13,0,.27.08.4s.11.54.15.81a9.14,9.14,0,0,1,.14,1.44,1.08,1.08,0,0,1-.65,1.06,4.19,4.19,0,0,1-2.18.16l-.39,0Q84.26,66.25,84.25,72a58.73,58.73,0,0,0,.88,10.89c.1.52.21,1,.32,1.58.32,1.6.59,2.77.81,3.52a6.17,6.17,0,0,0,.19.61,4,4,0,0,0,.19.43,1.67,1.67,0,0,0,.45.6.62.62,0,0,0,.39.14,66.69,66.69,0,0,0,11.28-1q5.71-1,11.42-2.1t11.48-2.1a67.15,67.15,0,0,1,11.32-1s0,0,0,0a1.85,1.85,0,0,1,.06.5v.2c0,.26,0,.51,0,.77s-.05.56-.08.84,0,.32,0,.49a4.55,4.55,0,0,0,0,1.81.08.08,0,0,0,.07,0,17.68,17.68,0,0,1-2.71,1.19,51.71,51.71,0,0,1-7.6,1.87c-1.63.28-3.28.54-4.92.75q-4.87.7-9.77,1.27c-1.59.19-3.19.39-4.78.61s-2.93.42-4.4.66Q91,95.77,88.45,97.46a3.27,3.27,0,0,0-.88.82L86.5,117.42a3.39,3.39,0,0,1-2.44,1.07l-3.62-.29Z" transform="translate(0 1)" stroke="#000" stroke-linecap="round" stroke-width="0.71"/><path d="M144,101.3a30.35,30.35,0,0,1-2.34-12.4,37.79,37.79,0,0,1,.55-6.63,28.79,28.79,0,0,1,1.74-6,29.19,29.19,0,0,1,6.3-9.52,28.88,28.88,0,0,1,19.51-8.26c.59,0,1.19,0,1.78,0a47.38,47.38,0,0,1,9.72.94,32.52,32.52,0,0,1,12.35,5.21,22.66,22.66,0,0,1,9.57,16.56,30.22,30.22,0,0,1,.19,3.56,54.73,54.73,0,0,1-.64,8.77q-1.55,9.7-6.83,15.16a22.83,22.83,0,0,1-8.84,5.53,35.7,35.7,0,0,1-8,1.82,53.35,53.35,0,0,1-6.44.36,49,49,0,0,1-10-.94,29.25,29.25,0,0,1-10.1-4A22.74,22.74,0,0,1,144,101.3ZM149.68,87q0,23,23.25,23a31.13,31.13,0,0,0,8.42-1.08,23.63,23.63,0,0,0,10.13-5.75,22.46,22.46,0,0,0,7-14.6c.1-1,.15-2,.15-3.08a19.52,19.52,0,0,0-1.25-7.13A17.09,17.09,0,0,0,191,70.41c-.27-.19-.55-.37-.84-.55a27.58,27.58,0,0,0-9-3.71,39.43,39.43,0,0,0-8-1l-1.33,0a21.94,21.94,0,0,0-15.32,6.15l-.21.2a21.07,21.07,0,0,0-5.44,8.22A21.31,21.31,0,0,0,149.68,87Z" transform="translate(0 1)" stroke="#000" stroke-linecap="round" stroke-width="0.71"/><path d="M211,101.3a30.35,30.35,0,0,1-2.34-12.4,37.79,37.79,0,0,1,.55-6.63,29.3,29.3,0,0,1,8-15.54,28.9,28.9,0,0,1,19.51-8.26c.59,0,1.19,0,1.78,0a47.48,47.48,0,0,1,9.73.94,32.47,32.47,0,0,1,12.34,5.21,22.63,22.63,0,0,1,9.57,16.56,32.53,32.53,0,0,1,.2,3.56,57.14,57.14,0,0,1-.64,8.77q-1.56,9.7-6.83,15.16a22.9,22.9,0,0,1-8.84,5.53,35.92,35.92,0,0,1-8,1.82,53.13,53.13,0,0,1-6.44.36,48.88,48.88,0,0,1-10-.94,29.09,29.09,0,0,1-10.1-4A22.76,22.76,0,0,1,211,101.3ZM216.68,87q0,23,23.24,23a31.08,31.08,0,0,0,8.42-1.08,23.63,23.63,0,0,0,10.13-5.75,22.46,22.46,0,0,0,7-14.6c.1-1,.15-2,.15-3.08a19.72,19.72,0,0,0-1.24-7.13,17.17,17.17,0,0,0-6.42-7.94c-.27-.19-.55-.37-.84-.55a27.58,27.58,0,0,0-9-3.71,39.43,39.43,0,0,0-8-1l-1.33,0a21.91,21.91,0,0,0-15.31,6.15l-.21.2a21,21,0,0,0-5.45,8.22A21.31,21.31,0,0,0,216.68,87Z" transform="translate(0 1)" stroke="#000" stroke-linecap="round" stroke-width="0.71"/><path d="M277.22,116.34V55.4h1.37a11.6,11.6,0,0,1,1.44.09,7.13,7.13,0,0,1,1.32.29,4.52,4.52,0,0,1,.85.36,5,5,0,0,1,.63.38,2.39,2.39,0,0,1,.87,1,1.18,1.18,0,0,1,.07.2,38.78,38.78,0,0,1,5.79-1.5,61.28,61.28,0,0,1,6.61-.81q3.36-.24,6.74-.23a69.78,69.78,0,0,1,10.31.71Q326.75,58,332.69,66a16.79,16.79,0,0,1,3.13,10.45,17.29,17.29,0,0,1,.09,1.76,19,19,0,0,1-2.26,8.75,31.32,31.32,0,0,1-4.14,6,51.81,51.81,0,0,1-5,5A73.63,73.63,0,0,1,309.1,108.6a94.41,94.41,0,0,1-10.39,4.62q-9.93,3.81-16.5,3.9h-.3A12.65,12.65,0,0,1,277.22,116.34Zm26-55.17-1.76.09a56.58,56.58,0,0,0-7.57.65,39.8,39.8,0,0,0-7.36,1.86l-1.08.42v46.59a25.09,25.09,0,0,0,5.1-.59,54.53,54.53,0,0,0,12-4.39q11.85-5.86,18.75-13a37.46,37.46,0,0,0,5.66-7.42,18.09,18.09,0,0,0,1.75-4.1,14.64,14.64,0,0,0,.59-4.11,14.77,14.77,0,0,0-6.59-11.12,22.34,22.34,0,0,0-3.08-1.77,35.32,35.32,0,0,0-13.45-3.05C305.17,61.19,304.18,61.17,303.2,61.17Z" transform="translate(0 1)" stroke="#000" stroke-linecap="round" stroke-width="0.71"/><path d="M382.79,118.3l-5.67.87a4.09,4.09,0,0,1-.78,0c-.89-.13-1.41-.5-1.56-1.12l.39-19.33H368l-11.72-.1h-7a8.79,8.79,0,0,1-2.54-.39,1.64,1.64,0,0,1-1.13-1.11,2.71,2.71,0,0,1-.13-.73c0-.07,0-.14,0-.21q5.14-6.6,10.06-13.38,15-20.44,20.87-21.17l.42,0a4,4,0,0,1,3.38,2.18q3.07,4.86,3.07,20.47,0,1.52,0,3c0,1.07,0,2.15-.07,3.22l21.58-.29a8.22,8.22,0,0,1-.63,3.71l-.27.46c-.32.49-.6.76-.86.81l-18.06,1.47a30.76,30.76,0,0,0-1.66,8.59c-.08,1.25-.15,2.5-.22,3.75q-.27,5.3-.27,9.21Zm-7.62-26.57V70.64a33.74,33.74,0,0,1-3.05,3.6c-.7.73-1.42,1.43-2.17,2.11q-3,2.75-6,5.57c-1.4,1.33-2.74,2.71-4,4.16-.42.47-.84,1-1.24,1.45a14.93,14.93,0,0,0-1.79,2.66,11.32,11.32,0,0,0-1.14,3.2h3c.49,0,1,0,1.48,0,1.39-.07,3.15-.24,5.25-.49C368.43,92.5,371.66,92.12,375.17,91.73Z" transform="translate(0 1)" stroke="#000" stroke-linecap="round" stroke-width="0.71"/><path d="M430.54,106.67l2.64-8.78c.48-1.47.93-2.94,1.37-4.42s.93-3.24,1.36-4.86L409.84,62.05q-.18-.24-.33-.48a2.25,2.25,0,0,1-.35-1v-.06a1.19,1.19,0,0,1,.78-1.07,6.84,6.84,0,0,1,2.74-.58H413a12.32,12.32,0,0,1,2.83.35c.29.07.59.15.88.24a8.42,8.42,0,0,1,1.28.53,19.77,19.77,0,0,1,2.88,1.93l.58.47Q427,67,439.72,82.16q5.76-16.8,8.3-21.63a26.8,26.8,0,0,1,4.06-6.25,5.18,5.18,0,0,1,2.53-1.49l.2,0c.16,0,.33,0,.49,0a7.94,7.94,0,0,1,1,0,4.69,4.69,0,0,1,.62.1A1.68,1.68,0,0,1,458.09,54l.09.23q-1.59,3.39-3,6.88-1.51,3.83-2.84,7.72-2.5,7.33-5,14.68c-.25.72-.49,1.45-.73,2.17-1.21,3.59-2.44,7.18-3.72,10.75a216.58,216.58,0,0,1-9.37,23,6.89,6.89,0,0,1-3.32-1c-.36-.21-.7-.44-1-.68-1.21-.87-1.81-1.67-1.81-2.4a1.24,1.24,0,0,1,.12-.53,13.07,13.07,0,0,0,.58-1.19A66.4,66.4,0,0,0,430.54,106.67Z" transform="translate(0 1)" stroke="#000" stroke-linecap="round" stroke-width="0.71"/><path d="M464.33,101.3A30.35,30.35,0,0,1,462,88.9a37.79,37.79,0,0,1,.55-6.63,29.3,29.3,0,0,1,8-15.54,28.9,28.9,0,0,1,19.51-8.26c.59,0,1.19,0,1.78,0a47.48,47.48,0,0,1,9.73.94,32.47,32.47,0,0,1,12.34,5.21,22.63,22.63,0,0,1,9.57,16.56,32.53,32.53,0,0,1,.2,3.56,57.14,57.14,0,0,1-.64,8.77q-1.56,9.7-6.83,15.16a22.9,22.9,0,0,1-8.84,5.53,35.92,35.92,0,0,1-8,1.82,53.13,53.13,0,0,1-6.44.36,48.88,48.88,0,0,1-10-.94,29.09,29.09,0,0,1-10.1-4A22.76,22.76,0,0,1,464.33,101.3ZM470,87q0,23,23.24,23a31.08,31.08,0,0,0,8.42-1.08,23.63,23.63,0,0,0,10.13-5.75,22.46,22.46,0,0,0,7-14.6c.1-1,.15-2,.15-3.08a19.72,19.72,0,0,0-1.24-7.13,17.17,17.17,0,0,0-6.42-7.94c-.27-.19-.55-.37-.83-.55a27.63,27.63,0,0,0-9-3.71,39.43,39.43,0,0,0-8-1l-1.33,0a21.91,21.91,0,0,0-15.31,6.15l-.21.2A20.51,20.51,0,0,0,470,87Z" transform="translate(0 1)" stroke="#000" stroke-linecap="round" stroke-width="0.71"/><path d="M571,116.73l1-12.5c-1.3,1.12-2.62,2.22-3.94,3.3a53,53,0,0,1-9.15,6.37,30.21,30.21,0,0,1-9.41,3,28,28,0,0,1-3.77.25c-.65,0-1.31,0-2-.05l-.68,0q-14.25-1.57-14.26-18.27,0-7.49,3.78-25.27c0-.2.09-.4.13-.6a76.37,76.37,0,0,0,1.66-10.36l.16,0a7.23,7.23,0,0,1,1.11-.06h1.17a4.23,4.23,0,0,1,.88-.1,2.88,2.88,0,0,1,1.64.45,3.78,3.78,0,0,1,1.4,2.78A11.8,11.8,0,0,1,540.8,67a21,21,0,0,1-.17,2.51,40,40,0,0,1-1.1,5.49q-.85,3.42-1.62,6.84a85.18,85.18,0,0,0-2.28,14.24c0,.23,0,.47,0,.7q0,6.34,3.32,10a7.85,7.85,0,0,0,2.5,1.77,12.56,12.56,0,0,0,2.47.79q.89.18,1.77.27h1.17a24.75,24.75,0,0,0,8.49-1.35q8.91-3.19,12.41-14a75.59,75.59,0,0,0,3.22-18c.08-1.23.15-2.47.2-3.71q.29-5.81.49-11.62c.57-1.57,1.32-2.51,2.23-2.82a2.33,2.33,0,0,1,.7-.11,6.08,6.08,0,0,1,3,1,12.55,12.55,0,0,1,1.08.71q.28,5.67.29,11.13l-1,37.31q0,4,.2,8a1.44,1.44,0,0,1-.88,1.38,4.38,4.38,0,0,1-1.78.37h-.37a8.3,8.3,0,0,1-1.65-.15,7.11,7.11,0,0,1-1-.28A4.92,4.92,0,0,1,571,116.73Z" transform="translate(0 1)" stroke="#000" stroke-linecap="round" stroke-width="0.71"/></g><path d="M64.48,92.67a1.54,1.54,0,0,1-.64-2.26c.08-.12.15-.25.22-.37a5.16,5.16,0,0,0-3.34-7.84l-.42-.1a1.54,1.54,0,0,1-1.19-2l.13-.39C60.3,76.3,57.86,73,53.66,73a1.69,1.69,0,0,1-1.88-1.74c.34-4.94-5.88-6.84-11.94.35-3.1,3.68-5.9,9.23-8.32,16.49A2.61,2.61,0,0,1,28,89.55c-6.91-3.29-12.86-5.11-17.66-5.42C1,83.53-1.95,89.32,1.86,92.5c.71.59.84,1.63-.11,2.63-2.7,2.89-2.22,7,1.06,8.62l.37.18a1.54,1.54,0,0,1,.64,2.26c-.07.12-.15.24-.22.37a5.16,5.16,0,0,0,3.34,7.83l.42.1a1.55,1.55,0,0,1,1.19,2l-.13.39c-1.06,3.36,1.35,6.68,5.58,6.73a1.69,1.69,0,0,1,1.88,1.74c0,.1,0,.21,0,.31a3.75,3.75,0,0,0,3.67,4.06c1.51.12,4.59-.33,8.29-4.72,3.1-3.68,5.9-9.23,8.32-16.5a2.49,2.49,0,0,1,1.42-1.48,2.55,2.55,0,0,1,2.06,0c6.91,3.28,12.86,5.1,17.66,5.41a14.09,14.09,0,0,0,6.56-.86c3.91-1.66,4.57-5.29,2.19-7.3l-.23-.2c-.71-.6-.83-1.64.11-2.64,2.72-2.9,2.2-7-1.06-8.61Zm-4.16-4.21-.2.34a5.07,5.07,0,0,0,2.07,7.35l.36.18c1,.48,1.18,1.72.16,2.81-2.34,2.49-2.32,6,0,8,.34.29.44.35.32.5a1.77,1.77,0,0,1-.7.46c-2,.86-8.07,1.39-20.52-4.52a7.35,7.35,0,0,0-9.8,4.18c-5.14,15.42-10.59,18.22-11.76,18.13-.2,0-.18-.14-.14-.59.2-2.94-2.12-5.5-5.8-5.54-1.26,0-2.19-.93-1.83-2.06l.12-.38a5.08,5.08,0,0,0-3.88-6.59l-.38-.09a1.62,1.62,0,0,1-1.05-2.46l.2-.34a5.08,5.08,0,0,0-2.07-7.36l-.36-.18c-1-.47-1.19-1.71-.16-2.8,2.16-2.3,2.57-5.75-.27-8.15-.21-.18-.15-.25-.1-.32.75-.91,6.53-2.9,21.22,4.07a7.35,7.35,0,0,0,9.8-4.18c5.14-15.43,10.59-18.23,11.77-18.13.08,0,.17,0,.15.29-.22,3.49,2.27,5.8,5.78,5.83,1.27,0,2.18.95,1.83,2.06l-.12.38a5.07,5.07,0,0,0,3.88,6.59l.38.09a1.62,1.62,0,0,1,1,2.47Z" transform="translate(0 1)"/><path d="M46.93,94.79a11.09,11.09,0,0,1-6.65.76,11.1,11.1,0,0,1,5.15-4.28,1.93,1.93,0,1,0-1.5-3.52,15.25,15.25,0,0,0-6.81,5.41,9.08,9.08,0,0,1-9.27,4,15.32,15.32,0,0,0-8.62,1.17,1.93,1.93,0,1,0,1.5,3.52,11.15,11.15,0,0,1,6.65-.75,11.09,11.09,0,0,1-5.15,4.27,1.93,1.93,0,1,0,1.5,3.53,15.32,15.32,0,0,0,6.81-5.42,9.13,9.13,0,0,1,9.27-4,15.39,15.39,0,0,0,8.62-1.16,1.93,1.93,0,1,0-1.5-3.53Z" transform="translate(0 1)" stroke="#000"/><path d="M99.83,46.92C97.76,39.79,91.94,28.86,76,17.32S44.92,1.58,35.06.09c-3-.46-6,.94-6.58,3.1a3.15,3.15,0,0,0,.79,3A5.32,5.32,0,0,0,31.4,7.6L15,42.71c-.24.53.15,1.1.87,1.28a1.73,1.73,0,0,0,.45,0,1.44,1.44,0,0,0,1.32-.68l14-29.84A76.68,76.68,0,0,1,62.62,27a69.36,69.36,0,0,1,9.47,8.17,1.56,1.56,0,0,0,1.14.44,1.76,1.76,0,0,0,.79-.18.84.84,0,0,0,.36-1.4A70.73,70.73,0,0,0,64.6,25.6h0a79.85,79.85,0,0,0-32.09-14l1.61-3.45c2.11.37,4.26.84,6.4,1.42A1.59,1.59,0,0,0,42.27,9c.27-.52-.1-1.1-.82-1.29A73.14,73.14,0,0,0,33.35,6a2.93,2.93,0,0,1-1.75-.87,1.55,1.55,0,0,1-.39-1.5c.31-1.08,1.78-1.78,3.28-1.55C44,3.5,58.55,7.56,74,18.75S95.11,40.47,97.1,47.34a1.56,1.56,0,0,1-.39,1.5,3,3,0,0,1-1.75.87,3.5,3.5,0,0,1-2.53-.55,1.9,1.9,0,0,1-.75-1c-1.84-6.34-7.07-16.09-21.58-26.58A90.13,90.13,0,0,0,47.72,9.66a1.65,1.65,0,0,0-1.86.45c-.35.5-.06,1.1.62,1.35A87.39,87.39,0,0,1,68.13,23c13.33,9.64,18.54,18.57,20.54,24.64l-4.75,1.16a39.82,39.82,0,0,0-6-10.66,1.73,1.73,0,0,0-1.9-.39c-.67.28-.91.89-.53,1.38a38,38,0,0,1,5.79,10.32l-9.35,2.29a5.84,5.84,0,0,0-2.52-3.81,11.3,11.3,0,0,0-12.4,0,5.58,5.58,0,0,0-2.57,4.49,5.05,5.05,0,0,0,1.27,3.29L11.08,66.64a3.24,3.24,0,0,1-2.64-.45,1.49,1.49,0,0,1-.62-1.91l7.74-16.53c.24-.53-.15-1.1-.88-1.28a1.54,1.54,0,0,0-1.76.63L5.18,63.64a3.13,3.13,0,0,0,1.29,4,6.42,6.42,0,0,0,3.77,1.14,7.78,7.78,0,0,0,1.73-.2l77.48-19a4.57,4.57,0,0,0,1,1,6.79,6.79,0,0,0,3.92,1.17,7.41,7.41,0,0,0,1.15-.08A5.88,5.88,0,0,0,99,49.94a3.12,3.12,0,0,0,.79-3ZM58.45,55.05a3.58,3.58,0,0,1-1.23-2.62A3.81,3.81,0,0,1,59,49.37a7.69,7.69,0,0,1,8.46,0,3.79,3.79,0,0,1,1.75,3.05Z" transform="translate(0 1)" stroke="#000" stroke-width="2"/><path d="M34,22.19a5.58,5.58,0,0,0-2.57,4.49A5.58,5.58,0,0,0,34,31.16a11.31,11.31,0,0,0,12.4,0A5.61,5.61,0,0,0,49,26.68a5.61,5.61,0,0,0-2.57-4.49,11.3,11.3,0,0,0-12.4,0Zm10.43,7.54a7.69,7.69,0,0,1-8.46,0,3.8,3.8,0,0,1-1.76-3.05A3.81,3.81,0,0,1,36,23.62a7.68,7.68,0,0,1,8.46,0,3.79,3.79,0,0,1,1.75,3.06,3.79,3.79,0,0,1-1.75,3.05Z" transform="translate(0 1)" stroke="#000" stroke-width="2"/><path d="M29.29,51.1a11.31,11.31,0,0,0,12.4,0,.83.83,0,0,0,0-1.43,1.8,1.8,0,0,0-2,0,7.71,7.71,0,0,1-8.47,0,3.55,3.55,0,0,1,0-6.12,7.75,7.75,0,0,1,8.47,0,4,4,0,0,1,1.71,2.53A1.36,1.36,0,0,0,43,47c.76-.07,1.3-.57,1.21-1.13a5.85,5.85,0,0,0-2.5-3.7,11.3,11.3,0,0,0-12.4,0,5.2,5.2,0,0,0,0,9Z" transform="translate(0 1)" stroke="#000" stroke-width="2"/><path d="M17.35,60.61a13.13,13.13,0,0,0,1.34.06l1,0a8.45,8.45,0,0,0,4.35-1.32,4.45,4.45,0,0,0,1.82-3.14,5.45,5.45,0,0,0,0-1.73,1.24,1.24,0,0,0-1.17-.85,15.77,15.77,0,0,0-2.39,0A8.45,8.45,0,0,0,18,54.89,4.45,4.45,0,0,0,16.14,58a5.45,5.45,0,0,0,0,1.73A1.24,1.24,0,0,0,17.35,60.61Zm2.58-4.3a6.24,6.24,0,0,1,3.24-.76,2.94,2.94,0,0,1-1.05,2.35,6.24,6.24,0,0,1-3.24.76A2.94,2.94,0,0,1,19.93,56.31Z" transform="translate(0 1)" stroke="#000" stroke-width="2"/><path d="M51.59,36.14a1.51,1.51,0,0,0-1.42.63,6.29,6.29,0,0,0-.57,1.68,3.86,3.86,0,0,0,.77,3.36,7.26,7.26,0,0,0,3.82,2,13.25,13.25,0,0,0,2.34.37h.12a1.46,1.46,0,0,0,1.29-.64,6.53,6.53,0,0,0,.58-1.68,3.87,3.87,0,0,0-.78-3.36,7.22,7.22,0,0,0-3.82-2,13.07,13.07,0,0,0-2.33-.37Zm3.79,3.42A2.7,2.7,0,0,1,55.66,42a5.47,5.47,0,0,1-2.92-1.27,2.64,2.64,0,0,1-.28-2.46A5.51,5.51,0,0,1,55.38,39.56Z" transform="translate(0 1)" stroke="#000" stroke-width="2"/><path d="M28.53,33.73c-.65.3-.84.92-.42,1.39l2.12,2.4a1.6,1.6,0,0,0,1.18.46,1.81,1.81,0,0,0,.75-.16.86.86,0,0,0,.42-1.39L30.45,34a1.74,1.74,0,0,0-1.92-.3Z" transform="translate(0 1)" stroke="#000" stroke-width="2"/><path d="M57.49,33.44l3,1.85a1.71,1.71,0,0,0,.91.25,1.64,1.64,0,0,0,1.06-.36.83.83,0,0,0-.15-1.42l-3-1.85a1.8,1.8,0,0,0-2,.11A.83.83,0,0,0,57.49,33.44Z" transform="translate(0 1)" stroke="#000" stroke-width="2"/><path d="M47.54,50.26l-.38,2.6c-.08.55.48,1,1.24,1.1h.15a1.3,1.3,0,0,0,1.38-.91l.38-2.59c.08-.56-.48-1-1.24-1.11a1.35,1.35,0,0,0-1.53.9Z" transform="translate(0 1)" stroke="#000" stroke-width="2"/></svg>