<svg id="f845cdaa-3bd6-44f8-b1c2-68e3bd408eaa" data-name="Layer 1" xmlns="http://www.w3.org/2000/svg" viewBox="0 0 272 496"><title>smartphone</title><g id="ed50b30a-9c2e-4f2d-bac6-4c85df917f74" data-name="Smartphone"><path d="M232,0H40A40,40,0,0,0,0,40V456a40,40,0,0,0,40,40H232a40,40,0,0,0,40-40V40A40,40,0,0,0,232,0ZM190.24,16l-4.8,24H86.56l-4.8-24ZM256,456a24,24,0,0,1-24,24H40a24,24,0,0,1-24-24V40A24,24,0,0,1,40,16H65.44l6.71,33.57A8,8,0,0,0,80,56H192a8,8,0,0,0,7.85-6.43L206.56,16H232a24,24,0,0,1,24,24Z"/><path d="M88,448H40a8,8,0,0,0,0,16H88a8,8,0,0,0,0-16Z"/><path d="M120,448h-8a8,8,0,0,0,0,16h8a8,8,0,0,0,0-16Z"/></g></svg>