<svg id="b11980e5-f42e-4100-8672-f50cc6b34341" data-name="Layer 1" xmlns="http://www.w3.org/2000/svg" viewBox="0 0 512 512"><title>whatsapp</title><path d="M439.28,72.72A246.64,246.64,0,0,0,263.71,0h0A248.32,248.32,0,0,0,43.05,362.16L1.31,481.39A23,23,0,0,0,22.94,512a23.25,23.25,0,0,0,7.67-1.31L149.84,469A248.31,248.31,0,0,0,439.28,72.72ZM418,402.63A218.36,218.36,0,0,1,161.25,441a23.08,23.08,0,0,0-18.45-1.43L34.48,477.52,72.4,369.2A23.12,23.12,0,0,0,71,350.75,218.29,218.29,0,0,1,263.69,30h0A218.26,218.26,0,0,1,418,402.63Z" transform="translate(0)"/><path d="M356,270.47a29.33,29.33,0,0,0-41.43,0L302.06,283a181.75,181.75,0,0,1-73-73l12.49-12.49a29.33,29.33,0,0,0,0-41.43l-33.67-33.67a29.33,29.33,0,0,0-41.43,0L139.5,149.28c-15.42,15.43-16.19,41.95-2.16,74.68,12.18,28.42,34.46,59.65,62.76,87.94s59.53,50.58,87.94,62.76c15.55,6.67,29.7,10,41.92,10,13.5,0,24.66-4.06,32.76-12.15l26.93-26.94h0a29.3,29.3,0,0,0,0-41.43Zm-14.5,80.79c-4.4,4.4-17.94,5.95-41.6-4.19-25-10.71-52.89-30.75-78.55-56.4s-45.68-53.55-56.39-78.54c-10.15-23.67-8.6-37.21-4.2-41.61l26.41-26.42,32.63,32.63-15.64,15.64a22.9,22.9,0,0,0-4.24,26.68,211.8,211.8,0,0,0,93,93.05,22.9,22.9,0,0,0,26.68-4.24l15.64-15.64,32.63,32.63Z" transform="translate(0)"/></svg>